<svg xmlns="http://www.w3.org/2000/svg" id="Ebene_1" viewBox="0 0 1069.71 1091.37">
  <defs>
    <style type="text/css">.cls-1 { fill: #fff; }

      .cls-2 { fill: #274496; }</style>
  </defs>
  <path class="cls-2" d="M142.93,1.15L0,175.84l9.15,7.48c38.57,33.49,177.64,175.66-9.15,348.92,0,0,102.36,519.22,533.53,558.99v.13c.22-.02.44-.05.66-.07.22.02.44.05.66.07v-.13c431.18-39.77,533.53-558.99,533.53-558.99-172.01-159.56-67.68-292.75-19.97-338.98l21.29-17.42L926.12.36,566.43,0h0s0,0,0,0l-31.9,31.9L502.62,0h0s0,0,0,0H143.87s0,0,0,0" />
  <g>
    <path class="cls-1" d="M499.96,197.09l-32.02-23.7,13.97-18.87,87.2,64.55-13.97,18.87-32.02-23.7-60.1,81.2-23.16-17.14,60.1-81.2Z" />
    <path class="cls-1" d="M638.6,306.35l-56.93,76.91-21.16-15.66,6.77-9.15c-10.83,2.38-22.06-.39-31.49-7.38-19.3-14.29-24.84-35.2-7.27-58.93l32.17-43.46,22.3,16.51-29.73,40.17c-9.52,12.87-8.04,22.82,1.83,30.12,10.29,7.62,22.59,6.54,33.07-7.61l28.15-38.03,22.3,16.51Z" />
    <path class="cls-1" d="M602.27,383.23l20.77-11.62c3.88,12.39,13.29,25.99,25.3,34.88,13.72,10.16,22.68,9.71,27.23,3.56,13.86-18.73-53.84-48.93-26.33-86.09,12.59-17.01,36.79-21.01,65.24.05,12.58,9.31,23.22,21.84,28.18,34.58l-20.16,12.29c-5.38-12.17-13.05-21.83-21.91-28.39-13.72-10.16-22.82-8.93-27.48-2.64-13.65,18.44,53.95,48.78,26.75,85.52-12.38,16.73-36.83,20.76-65.42-.41-15.87-11.74-28.39-28.31-32.17-41.74Z" />
    <path class="cls-1" d="M864.31,437.57l-117.38,68-22.87-16.93,30.9-132.02,25.02,18.52-22.46,94.01,83.79-48.62,23.02,17.04Z" />
  </g>
  <g>
    <path class="cls-1" d="M314.3,656.17l-73.53,100.77-23.32-17.02,59.88-82.06-20.15-14.71,13.66-18.72,43.48,31.72Z" />
    <path class="cls-1" d="M377.15,775.93c-25.42,34.84-60.48,39.04-91,16.77-10.65-7.77-19.09-17.68-22.89-27.29l21.14-10.83c2.74,7.73,8.27,13.76,15.18,18.8,16.7,12.19,34.89,10.24,49.79-8.67-10.21,1.6-21.16-1.54-31.67-9.21-19.43-14.18-25.66-37.7-11.79-56.7,15.02-20.59,41.32-21.25,62.63-5.7,27.93,20.38,32.35,50.3,8.61,82.83ZM363.91,739.35c6.3-8.64,4.45-19.7-6.64-27.79-9.93-7.25-21.05-6.53-27.77,2.68-6.72,9.21-4.26,20.05,6.1,27.62,10.22,7.46,21.9,6.27,28.3-2.51Z" />
    <path class="cls-1" d="M461.57,763.63l-73.53,100.77-23.32-17.02,59.88-82.06-20.15-14.71,13.66-18.72,43.48,31.72Z" />
    <path class="cls-1" d="M442.37,826.83c24.27-33.25,56.45-38.67,81.22-20.6s29.43,50.37,5.16,83.63c-24.27,33.25-56.31,38.77-81.22,20.6-24.76-18.07-29.43-50.37-5.16-83.63ZM505.28,872.74c16.7-22.89,15.57-38.27,3.91-46.78-11.52-8.4-26.51-4.79-43.21,18.1-16.7,22.89-15.57,38.27-4.06,46.68,11.66,8.51,26.66,4.89,43.36-18Z" />
  </g>
  <g>
    <path class="cls-1" d="M173.9,180.77l749.58,551.11c11.98,8.81,14.58,25.64,5.83,37.65l-98.56,135.25c-8.8,12.07-25.72,14.71-37.77,5.88L138.58,431.45s63.37-126.81-25.99-210.69c1.43-3.32,13.13-19.8,23.42-34.04,8.79-12.16,25.8-14.83,37.88-5.94Z" />
    <g>
      <path class="cls-2" d="M180.18,363.09l12.66-7.19c2.42,9.15,9.35,19.49,18.47,26.21,11.55,8.52,19.48,7.98,23.54,2.46,11.8-16.01-40.04-38.02-19.72-65.58,8.83-11.98,25.87-15.12,46.23-.12,8.9,6.56,16.51,15.77,19.86,24.78l-12.24,7.5c-3.79-8.85-9.7-16.15-16.16-20.91-11.45-8.44-19.4-7.42-23.54-1.81-11.64,15.8,39.93,37.94,19.85,65.18-8.75,11.87-25.9,14.94-46.25-.06-11.56-8.52-20.45-20.64-22.7-30.47Z" />
      <path class="cls-2" d="M307.43,372.46l-24.59-18.13,8.6-11.66,62.97,46.41-8.6,11.66-24.59-18.13-46.1,62.55-13.78-10.16,46.1-62.55Z" />
      <path class="cls-2" d="M374.26,500.42l-8.52,11.55-55.65-41.02,54.7-74.21,54.17,39.93-8.52,11.55-40.39-29.77-14.22,19.29,35.83,26.41-8.36,11.34-35.83-26.41-15.08,20.46,41.87,30.86Z" />
      <path class="cls-2" d="M435.81,449.1l13.78,10.16-46.1,62.55,38.8,28.6-8.6,11.66-52.58-38.76,54.7-74.21Z" />
      <path class="cls-2" d="M499.31,495.9l13.78,10.16-46.1,62.55,38.8,28.6-8.6,11.66-52.58-38.76,54.7-74.21Z" />
      <path class="cls-2" d="M562.81,542.71l13.78,10.16-54.7,74.21-13.78-10.16,54.7-74.21Z" />
      <path class="cls-2" d="M563.98,600.83c16.33-22.16,45.09-25.66,67.88-8.86,12.09,8.91,19.27,20.91,20.22,34.05l-15.08,1.81c-1.11-9.82-5.68-17.6-13.42-23.3-15.37-11.33-34.47-8.72-45.72,6.54-11.25,15.27-8.09,34.28,7.28,45.61,7.74,5.7,16.53,7.77,26.31,5.81l2.65,15.04c-12.83,2.98-26.42-.33-38.61-9.32-22.69-16.72-27.85-45.23-11.52-67.39Z" />
      <path class="cls-2" d="M739.63,673.04l-54.7,74.21-13.78-10.16,23.44-31.8-38.38-28.29-23.44,31.8-13.78-10.16,54.7-74.21,13.78,10.16-22.58,30.64,38.38,28.29,22.58-30.64,13.78,10.16Z" />
      <path class="cls-2" d="M766.02,710.49l-24.59-18.13,8.6-11.66,62.97,46.42-8.6,11.66-24.59-18.13-46.1,62.55-13.78-10.16,46.1-62.55Z" />
      <path class="cls-2" d="M832.85,838.45l-8.52,11.55-55.65-41.02,54.7-74.21,54.17,39.93-8.52,11.55-40.39-29.77-14.22,19.29,35.83,26.41-8.36,11.34-35.83-26.41-15.08,20.46,41.87,30.87Z" />
    </g>
  </g>
</svg>