<?xml version="1.0" encoding="UTF-8"?>
<svg id="Ebene_1" data-name="Ebene 1" xmlns="http://www.w3.org/2000/svg" viewBox="0 0 1069.7 1091.79">
  <defs>
    <style>
      .cls-1 {
        fill: #fff;
      }

      .cls-2 {
        fill: #274496;
      }
    </style>
  </defs>
  <path class="cls-2" d="M142.58,2.34L0,177.31l9.16,7.46c38.64,33.41,177.99,175.31-8.46,348.94,0,0,103.38,519.02,534.63,557.94v.13c.22-.02.44-.05.66-.07.22.02.44.04.66.06v-.13c431.1-40.62,532.43-560.05,532.43-560.05-172.33-159.22-68.25-292.62-20.64-338.94l21.26-17.46L925.77,0l-359.69.36h0s0,0,0,0l-31.84,31.97L502.28.49h0s0,0,0,0l-358.73.71h-.01s0,0,0,0"/>
  <path class="cls-1" d="M488.5,209.49l-32.05-23.66,13.94-18.89,87.28,64.43-13.94,18.89-32.05-23.66-60,81.27-23.18-17.11,60-81.27Z"/>
  <path class="cls-1" d="M627.28,318.57l-56.83,76.98-21.18-15.63,6.76-9.16c-10.83,2.39-22.06-.37-31.5-7.34-19.32-14.26-24.88-35.17-7.35-58.92l32.11-43.5,22.32,16.48-29.68,40.21c-9.51,12.88-8.01,22.83,1.87,30.12,10.3,7.6,22.6,6.52,33.06-7.65l28.1-38.06,22.32,16.48Z"/>
  <path class="cls-1" d="M591.05,395.51l20.76-11.65c3.9,12.38,13.32,25.97,25.34,34.85,13.74,10.14,22.7,9.68,27.24,3.53,13.84-18.74-53.91-48.86-26.44-86.06,12.57-17.03,36.76-21.05,65.24-.03,12.59,9.3,23.25,21.81,28.22,34.54l-20.15,12.32c-5.39-12.16-13.08-21.81-21.95-28.36-13.74-10.14-22.83-8.9-27.48-2.6-13.63,18.46,54.01,48.71,26.86,85.49-12.36,16.74-36.8,20.8-65.42-.32-15.88-11.72-28.42-28.28-32.22-41.69Z"/>
  <path class="cls-1" d="M853.16,449.51l-117.3,68.16-22.89-16.9,30.73-132.06,25.04,18.49-22.34,94.04,83.72-48.73,23.04,17.01Z"/>
  <path class="cls-1" d="M325.32,654.72l-74.09,100.36-23.23-17.15,60.33-81.73-20.07-14.82,13.76-18.64,43.3,31.96Z"/>
  <path class="cls-1" d="M387.5,774.83c-25.61,34.7-60.69,38.71-91.09,16.27-10.61-7.83-18.99-17.78-22.73-27.42l21.2-10.71c2.7,7.75,8.2,13.8,15.08,18.88,16.63,12.28,34.83,10.43,49.84-8.4-10.22,1.54-21.15-1.66-31.62-9.38-19.36-14.29-25.45-37.84-11.48-56.76,15.14-20.5,41.44-21.02,62.66-5.36,27.82,20.53,32.07,50.48,8.15,82.88ZM374.46,738.19c6.35-8.6,4.56-19.67-6.48-27.82-9.89-7.3-21.01-6.65-27.78,2.53-6.77,9.18-4.37,20.03,5.95,27.65,10.18,7.52,21.86,6.39,28.32-2.35Z"/>
  <path class="cls-1" d="M471.99,763l-74.09,100.36-23.23-17.15,60.33-81.73-20.07-14.82,13.76-18.64,43.3,31.96Z"/>
  <path class="cls-1" d="M452.44,826.1c24.45-33.12,56.67-38.35,81.33-20.15,24.8,18.31,29.15,50.54,4.7,83.66-24.45,33.12-56.52,38.46-81.33,20.15-24.66-18.21-29.15-50.54-4.7-83.66ZM515.1,872.35c16.83-22.8,15.79-38.19,4.17-46.76-11.47-8.47-26.49-4.93-43.31,17.87-16.83,22.8-15.79,38.19-4.32,46.65,11.61,8.57,26.63,5.04,43.46-17.76Z"/>
  <path class="cls-1" d="M171.52,179.27l745.96,556c11.92,8.88,14.41,25.73,5.58,37.69l-99.45,134.6c-8.88,12.01-25.82,14.54-37.81,5.63L134.57,429.71s64.19-126.39-24.61-210.86c1.46-3.31,13.26-19.72,23.65-33.89,8.87-12.1,25.89-14.66,37.92-5.7Z"/>
  <g>
    <path class="cls-2" d="M171.82,361.83l12.71-7.11c2.36,9.16,9.23,19.55,18.3,26.33,11.5,8.59,19.43,8.1,23.53,2.62,11.9-15.93-39.79-38.28-19.29-65.71,8.91-11.92,25.97-14.95,46.23.18,8.86,6.62,16.41,15.88,19.69,24.91l-12.29,7.42c-3.73-8.87-9.59-16.21-16.02-21.02-11.39-8.51-19.35-7.55-23.52-1.96-11.75,15.72,39.68,38.2,19.42,65.31-8.83,11.82-26,14.77-46.25-.37-11.5-8.59-20.32-20.77-22.5-30.62Z"/>
    <path class="cls-2" d="M299.01,372.03l-24.48-18.29,8.67-11.6,62.66,46.83-8.67,11.6-24.48-18.29-46.51,62.24-13.71-10.25,46.51-62.24Z"/>
    <path class="cls-2" d="M365,500.43l-8.59,11.5-55.38-41.39,55.18-73.85,53.91,40.28-8.59,11.5-40.19-30.03-14.35,19.2,35.66,26.65-8.43,11.29-35.66-26.65-15.21,20.36,41.67,31.14Z"/>
    <path class="cls-2" d="M426.89,449.51l13.71,10.25-46.51,62.24,38.61,28.85-8.67,11.6-52.33-39.1,55.18-73.85Z"/>
    <path class="cls-2" d="M490.08,496.73l13.71,10.25-46.51,62.24,38.61,28.85-8.67,11.6-52.33-39.1,55.18-73.85Z"/>
    <path class="cls-2" d="M553.27,543.95l13.71,10.25-55.18,73.85-13.71-10.25,55.18-73.85Z"/>
    <path class="cls-2" d="M554.06,602.08c16.48-22.05,45.26-25.37,67.94-8.42,12.03,8.99,19.13,21.04,20,34.18l-15.09,1.71c-1.04-9.82-5.56-17.64-13.26-23.39-15.3-11.43-34.41-8.95-45.77,6.24-11.35,15.19-8.32,34.23,6.98,45.66,7.7,5.75,16.48,7.87,26.27,5.99l2.56,15.06c-12.85,2.89-26.42-.51-38.55-9.57-22.58-16.87-27.55-45.41-11.08-67.46Z"/>
    <path class="cls-2" d="M729.24,675.44l-55.18,73.85-13.71-10.25,23.65-31.65-38.19-28.54-23.65,31.65-13.71-10.25,55.18-73.85,13.71,10.25-22.78,30.49,38.19,28.54,22.78-30.49,13.71,10.25Z"/>
    <path class="cls-2" d="M755.38,713.06l-24.48-18.29,8.67-11.6,62.66,46.83-8.67,11.6-24.47-18.29-46.51,62.24-13.71-10.25,46.51-62.24Z"/>
    <path class="cls-2" d="M821.37,841.45l-8.59,11.5-55.38-41.39,55.18-73.85,53.91,40.28-8.59,11.5-40.19-30.03-14.35,19.2,35.66,26.65-8.43,11.29-35.66-26.65-15.21,20.36,41.67,31.14Z"/>
  </g>
</svg>